# xmcd
#
# Track frame offsets: 
#        150
#        11043
#        22953
#        50689
#        66585
#        86083
#        102829
#        119496
#        133252
#        151374
#        168291
#        196069
#        213221
#
# Disc length: 3565 seconds
#
# Revision: 0
# Processed by: cddbd v1.5.2PL0 Copyright (c) Steve Scherf et al.
# Submitted via: ExactAudioCopyFreeDBPlugin 1.0
#
DISCID=b30deb0d
DTITLE=BB Black Dog - No. One
DYEAR=2015
DGENRE=Blues
TTITLE0=BB Black Dog
TTITLE1=Politicians
TTITLE2=Naive Common Sense
TTITLE3=Spin
TTITLE4=What You Need
TTITLE5=Gimp
TTITLE6=When I met You
TTITLE7=Speed Dating
TTITLE8=Just One More
TTITLE9=Problems
TTITLE10=Good And Bad
TTITLE11=I'Ve Had My Fill
TTITLE12=Bonus Live Tracks
EXTD=
EXTT0=
EXTT1=
EXTT2=
EXTT3=
EXTT4=
EXTT5=
EXTT6=
EXTT7=
EXTT8=
EXTT9=
EXTT10=
EXTT11=
EXTT12=
PLAYORDER=
